<mxfile host="app.diagrams.net" agent="Mozilla/5.0 (X11; Linux x86_64; rv:133.0) Gecko/20100101 Firefox/133.0" version="28.0.4">
  <diagram id="C5RBs43oDa-KdzZeNtuy" name="Page-1">
    <mxGraphModel dx="758" dy="384" grid="1" gridSize="10" guides="1" tooltips="1" connect="1" arrows="1" fold="1" page="1" pageScale="1" pageWidth="827" pageHeight="1169" math="0" shadow="0">
      <root>
        <mxCell id="WIyWlLk6GJQsqaUBKTNV-0" />
        <mxCell id="WIyWlLk6GJQsqaUBKTNV-1" parent="WIyWlLk6GJQsqaUBKTNV-0" />
        <mxCell id="B_APaOrJ2emBslFfA4eh-241" style="edgeStyle=none;shape=connector;rounded=0;orthogonalLoop=1;jettySize=auto;html=1;shadow=0;strokeColor=default;strokeWidth=1;align=center;verticalAlign=middle;fontFamily=Helvetica;fontSize=12;fontColor=default;labelBackgroundColor=none;endArrow=block;endFill=0;endSize=8;" edge="1" parent="WIyWlLk6GJQsqaUBKTNV-1" source="B_APaOrJ2emBslFfA4eh-242" target="B_APaOrJ2emBslFfA4eh-265">
          <mxGeometry relative="1" as="geometry" />
        </mxCell>
        <mxCell id="B_APaOrJ2emBslFfA4eh-242" value="Start" style="ellipse;whiteSpace=wrap;html=1;fontSize=12;" vertex="1" parent="WIyWlLk6GJQsqaUBKTNV-1">
          <mxGeometry x="263" y="590" width="120" height="50" as="geometry" />
        </mxCell>
        <mxCell id="B_APaOrJ2emBslFfA4eh-243" style="edgeStyle=none;shape=connector;rounded=0;orthogonalLoop=1;jettySize=auto;html=1;shadow=0;strokeColor=default;strokeWidth=1;align=center;verticalAlign=middle;fontFamily=Helvetica;fontSize=12;fontColor=default;labelBackgroundColor=none;endArrow=block;endFill=0;endSize=8;" edge="1" parent="WIyWlLk6GJQsqaUBKTNV-1" source="B_APaOrJ2emBslFfA4eh-244" target="B_APaOrJ2emBslFfA4eh-246">
          <mxGeometry relative="1" as="geometry" />
        </mxCell>
        <mxCell id="B_APaOrJ2emBslFfA4eh-244" value="&lt;div&gt;Check&lt;/div&gt;&lt;div&gt;Username,&lt;/div&gt;&lt;div&gt;Password,&lt;/div&gt;&lt;div&gt;Position&lt;br&gt;&lt;/div&gt;" style="rhombus;whiteSpace=wrap;html=1;fontFamily=Helvetica;fontSize=12;fontColor=default;labelBackgroundColor=none;" vertex="1" parent="WIyWlLk6GJQsqaUBKTNV-1">
          <mxGeometry x="263" y="797" width="120" height="80" as="geometry" />
        </mxCell>
        <mxCell id="B_APaOrJ2emBslFfA4eh-245" value="" style="edgeStyle=none;shape=connector;rounded=0;orthogonalLoop=1;jettySize=auto;html=1;shadow=0;strokeColor=default;strokeWidth=1;align=center;verticalAlign=middle;fontFamily=Helvetica;fontSize=12;fontColor=default;labelBackgroundColor=none;endArrow=block;endFill=0;endSize=8;" edge="1" parent="WIyWlLk6GJQsqaUBKTNV-1" source="B_APaOrJ2emBslFfA4eh-246" target="B_APaOrJ2emBslFfA4eh-248">
          <mxGeometry relative="1" as="geometry" />
        </mxCell>
        <mxCell id="B_APaOrJ2emBslFfA4eh-246" value="Visit Admin Dashboard" style="rounded=1;whiteSpace=wrap;html=1;fontFamily=Helvetica;fontSize=12;fontColor=default;labelBackgroundColor=none;" vertex="1" parent="WIyWlLk6GJQsqaUBKTNV-1">
          <mxGeometry x="453" y="817" width="120" height="40" as="geometry" />
        </mxCell>
        <mxCell id="B_APaOrJ2emBslFfA4eh-247" style="edgeStyle=none;shape=connector;rounded=0;orthogonalLoop=1;jettySize=auto;html=1;shadow=0;strokeColor=default;strokeWidth=1;align=center;verticalAlign=middle;fontFamily=Helvetica;fontSize=12;fontColor=default;labelBackgroundColor=none;endArrow=block;endFill=0;endSize=8;" edge="1" parent="WIyWlLk6GJQsqaUBKTNV-1" source="B_APaOrJ2emBslFfA4eh-248" target="B_APaOrJ2emBslFfA4eh-259">
          <mxGeometry relative="1" as="geometry" />
        </mxCell>
        <mxCell id="B_APaOrJ2emBslFfA4eh-248" value="Navigate to Payment Page" style="whiteSpace=wrap;html=1;fontSize=12;rounded=1;labelBackgroundColor=none;" vertex="1" parent="WIyWlLk6GJQsqaUBKTNV-1">
          <mxGeometry x="453" y="897" width="120" height="40" as="geometry" />
        </mxCell>
        <mxCell id="B_APaOrJ2emBslFfA4eh-249" style="edgeStyle=none;shape=connector;rounded=0;orthogonalLoop=1;jettySize=auto;html=1;shadow=0;strokeColor=default;strokeWidth=1;align=center;verticalAlign=middle;fontFamily=Helvetica;fontSize=12;fontColor=default;labelBackgroundColor=none;endArrow=block;endFill=0;endSize=8;" edge="1" parent="WIyWlLk6GJQsqaUBKTNV-1" source="B_APaOrJ2emBslFfA4eh-253" target="B_APaOrJ2emBslFfA4eh-254">
          <mxGeometry relative="1" as="geometry" />
        </mxCell>
        <mxCell id="B_APaOrJ2emBslFfA4eh-250" value="Reject" style="edgeLabel;html=1;align=center;verticalAlign=middle;resizable=0;points=[];rounded=1;strokeColor=default;fontFamily=Helvetica;fontSize=12;fontColor=default;labelBackgroundColor=none;fillColor=default;" vertex="1" connectable="0" parent="B_APaOrJ2emBslFfA4eh-249">
          <mxGeometry x="-0.0143" y="-1" relative="1" as="geometry">
            <mxPoint y="-9" as="offset" />
          </mxGeometry>
        </mxCell>
        <mxCell id="B_APaOrJ2emBslFfA4eh-251" style="edgeStyle=none;shape=connector;rounded=0;orthogonalLoop=1;jettySize=auto;html=1;shadow=0;strokeColor=default;strokeWidth=1;align=center;verticalAlign=middle;fontFamily=Helvetica;fontSize=12;fontColor=default;labelBackgroundColor=none;endArrow=block;endFill=0;endSize=8;" edge="1" parent="WIyWlLk6GJQsqaUBKTNV-1" source="B_APaOrJ2emBslFfA4eh-253" target="B_APaOrJ2emBslFfA4eh-256">
          <mxGeometry relative="1" as="geometry" />
        </mxCell>
        <mxCell id="B_APaOrJ2emBslFfA4eh-252" value="Accept" style="edgeLabel;html=1;align=center;verticalAlign=middle;resizable=0;points=[];rounded=1;strokeColor=default;fontFamily=Helvetica;fontSize=12;fontColor=default;labelBackgroundColor=none;fillColor=default;" vertex="1" connectable="0" parent="B_APaOrJ2emBslFfA4eh-251">
          <mxGeometry x="-0.2133" y="-2" relative="1" as="geometry">
            <mxPoint x="22" y="-4" as="offset" />
          </mxGeometry>
        </mxCell>
        <mxCell id="B_APaOrJ2emBslFfA4eh-253" value="Pending Payment" style="rhombus;whiteSpace=wrap;html=1;fontFamily=Helvetica;fontSize=12;fontColor=default;labelBackgroundColor=none;" vertex="1" parent="WIyWlLk6GJQsqaUBKTNV-1">
          <mxGeometry x="453" y="1077" width="120" height="80" as="geometry" />
        </mxCell>
        <mxCell id="B_APaOrJ2emBslFfA4eh-254" value="Send Warning Messages to user" style="whiteSpace=wrap;html=1;fontSize=12;rounded=1;labelBackgroundColor=none;" vertex="1" parent="WIyWlLk6GJQsqaUBKTNV-1">
          <mxGeometry x="263" y="1097" width="120" height="40" as="geometry" />
        </mxCell>
        <mxCell id="B_APaOrJ2emBslFfA4eh-255" style="edgeStyle=none;shape=connector;rounded=0;orthogonalLoop=1;jettySize=auto;html=1;shadow=0;strokeColor=default;strokeWidth=1;align=center;verticalAlign=middle;fontFamily=Helvetica;fontSize=12;fontColor=default;labelBackgroundColor=none;endArrow=block;endFill=0;endSize=8;" edge="1" parent="WIyWlLk6GJQsqaUBKTNV-1" source="B_APaOrJ2emBslFfA4eh-256" target="B_APaOrJ2emBslFfA4eh-262">
          <mxGeometry relative="1" as="geometry" />
        </mxCell>
        <mxCell id="B_APaOrJ2emBslFfA4eh-256" value="Send Receipt to user" style="whiteSpace=wrap;html=1;fontSize=12;rounded=1;labelBackgroundColor=none;" vertex="1" parent="WIyWlLk6GJQsqaUBKTNV-1">
          <mxGeometry x="453" y="1217" width="120" height="40" as="geometry" />
        </mxCell>
        <mxCell id="B_APaOrJ2emBslFfA4eh-257" style="edgeStyle=none;shape=connector;rounded=0;orthogonalLoop=1;jettySize=auto;html=1;shadow=0;strokeColor=default;strokeWidth=1;align=center;verticalAlign=middle;fontFamily=Helvetica;fontSize=12;fontColor=default;labelBackgroundColor=none;endArrow=block;endFill=0;endSize=8;" edge="1" parent="WIyWlLk6GJQsqaUBKTNV-1" source="B_APaOrJ2emBslFfA4eh-259" target="B_APaOrJ2emBslFfA4eh-260">
          <mxGeometry relative="1" as="geometry" />
        </mxCell>
        <mxCell id="B_APaOrJ2emBslFfA4eh-258" style="edgeStyle=none;shape=connector;rounded=0;orthogonalLoop=1;jettySize=auto;html=1;shadow=0;strokeColor=default;strokeWidth=1;align=center;verticalAlign=middle;fontFamily=Helvetica;fontSize=12;fontColor=default;labelBackgroundColor=none;endArrow=block;endFill=0;endSize=8;" edge="1" parent="WIyWlLk6GJQsqaUBKTNV-1" source="B_APaOrJ2emBslFfA4eh-259" target="B_APaOrJ2emBslFfA4eh-253">
          <mxGeometry relative="1" as="geometry" />
        </mxCell>
        <mxCell id="B_APaOrJ2emBslFfA4eh-259" value="Filter Payment by Pending, Rejected, Finished" style="shape=parallelogram;perimeter=parallelogramPerimeter;whiteSpace=wrap;html=1;fixedSize=1;rounded=0;strokeColor=default;align=center;verticalAlign=middle;fontFamily=Helvetica;fontSize=12;fontColor=default;labelBackgroundColor=none;fillColor=default;" vertex="1" parent="WIyWlLk6GJQsqaUBKTNV-1">
          <mxGeometry x="443" y="977" width="130" height="60" as="geometry" />
        </mxCell>
        <mxCell id="B_APaOrJ2emBslFfA4eh-260" value="Generate Payment Report" style="shape=document;whiteSpace=wrap;html=1;boundedLbl=1;rounded=1;strokeColor=default;align=center;verticalAlign=middle;fontFamily=Helvetica;fontSize=12;fontColor=default;labelBackgroundColor=none;fillColor=default;" vertex="1" parent="WIyWlLk6GJQsqaUBKTNV-1">
          <mxGeometry x="623" y="982" width="110" height="50" as="geometry" />
        </mxCell>
        <mxCell id="B_APaOrJ2emBslFfA4eh-261" style="edgeStyle=none;shape=connector;rounded=0;orthogonalLoop=1;jettySize=auto;html=1;shadow=0;strokeColor=default;strokeWidth=1;align=center;verticalAlign=middle;fontFamily=Helvetica;fontSize=12;fontColor=default;labelBackgroundColor=none;endArrow=block;endFill=0;endSize=8;" edge="1" parent="WIyWlLk6GJQsqaUBKTNV-1" source="B_APaOrJ2emBslFfA4eh-262" target="B_APaOrJ2emBslFfA4eh-263">
          <mxGeometry relative="1" as="geometry" />
        </mxCell>
        <mxCell id="B_APaOrJ2emBslFfA4eh-262" value="Logout" style="whiteSpace=wrap;html=1;fontSize=12;rounded=1;labelBackgroundColor=none;" vertex="1" parent="WIyWlLk6GJQsqaUBKTNV-1">
          <mxGeometry x="453" y="1317" width="120" height="40" as="geometry" />
        </mxCell>
        <mxCell id="B_APaOrJ2emBslFfA4eh-263" value="End" style="ellipse;whiteSpace=wrap;html=1;fontSize=12;" vertex="1" parent="WIyWlLk6GJQsqaUBKTNV-1">
          <mxGeometry x="453" y="1427" width="120" height="50" as="geometry" />
        </mxCell>
        <mxCell id="B_APaOrJ2emBslFfA4eh-264" style="edgeStyle=none;shape=connector;rounded=0;orthogonalLoop=1;jettySize=auto;html=1;shadow=0;strokeColor=default;strokeWidth=1;align=center;verticalAlign=middle;fontFamily=Helvetica;fontSize=12;fontColor=default;labelBackgroundColor=none;endArrow=block;endFill=0;endSize=8;" edge="1" parent="WIyWlLk6GJQsqaUBKTNV-1" source="B_APaOrJ2emBslFfA4eh-265" target="B_APaOrJ2emBslFfA4eh-244">
          <mxGeometry relative="1" as="geometry" />
        </mxCell>
        <mxCell id="B_APaOrJ2emBslFfA4eh-265" value="Login" style="rounded=1;whiteSpace=wrap;html=1;fontFamily=Helvetica;fontSize=12;fontColor=default;labelBackgroundColor=none;" vertex="1" parent="WIyWlLk6GJQsqaUBKTNV-1">
          <mxGeometry x="263" y="698" width="120" height="40" as="geometry" />
        </mxCell>
        <mxCell id="B_APaOrJ2emBslFfA4eh-266" style="edgeStyle=orthogonalEdgeStyle;shape=connector;rounded=0;orthogonalLoop=1;jettySize=auto;html=1;shadow=0;strokeColor=default;strokeWidth=1;align=center;verticalAlign=middle;fontFamily=Helvetica;fontSize=12;fontColor=default;labelBackgroundColor=none;endArrow=block;endFill=0;endSize=8;" edge="1" parent="WIyWlLk6GJQsqaUBKTNV-1" source="B_APaOrJ2emBslFfA4eh-244">
          <mxGeometry relative="1" as="geometry">
            <mxPoint x="323" y="670" as="targetPoint" />
            <Array as="points">
              <mxPoint x="220" y="837" />
              <mxPoint x="220" y="670" />
            </Array>
          </mxGeometry>
        </mxCell>
        <mxCell id="B_APaOrJ2emBslFfA4eh-267" value="Yes" style="edgeLabel;html=1;align=center;verticalAlign=middle;resizable=0;points=[];fontFamily=Helvetica;fontSize=12;fontColor=default;labelBackgroundColor=none;" vertex="1" connectable="0" parent="WIyWlLk6GJQsqaUBKTNV-1">
          <mxGeometry x="410" y="850" as="geometry" />
        </mxCell>
        <mxCell id="B_APaOrJ2emBslFfA4eh-268" value="No" style="edgeLabel;html=1;align=center;verticalAlign=middle;resizable=0;points=[];fontFamily=Helvetica;fontSize=12;fontColor=default;labelBackgroundColor=none;" vertex="1" connectable="0" parent="WIyWlLk6GJQsqaUBKTNV-1">
          <mxGeometry x="220" y="850" as="geometry">
            <mxPoint x="17" y="-3" as="offset" />
          </mxGeometry>
        </mxCell>
      </root>
    </mxGraphModel>
  </diagram>
</mxfile>
